<svg version="1" xmlns="http://www.w3.org/2000/svg" width="490.667" height="490.667" viewBox="0 0 368.000000 368.000000"><path d="M160.9 32.7c-.6.7-.8 1.3-.4 1.3s.3.6-.2 1.2c-.8 1.1-4.4 9.8-4.9 11.8 0 .3-.6 1.8-1.3 3.5-.6 1.6-1.6 4.3-2.2 6-.6 1.6-1.7 4.3-2.4 6-.7 1.6-2.6 6.6-4.2 11-1.7 4.4-3.4 8.9-3.8 10-.4 1.1-.9 2.4-1.1 3-.1.5-3.9 10.4-8.4 22-4.5 11.5-8.3 21.4-8.4 22-.2.5-.8 2.3-1.5 4-3.9 9.9-10.2 26.5-10.2 27 0 .2-1.1 2.9-2.4 6-1.4 3-2.2 5.5-2 5.5.3 0-.1 1-.9 2.2-.8 1.3-1.5 2.5-1.5 2.8 0 .6-.4 1.8-5.9 16-2.4 6.3-4.5 12.3-4.7 13.2-.2.9-.8 2.5-1.3 3.5-.6 1-5.6 13.9-11.2 28.8-5.6 14.8-10.6 27.9-11.1 29-1.1 2.4-8 20.6-8.3 22-.2.5-.8 2.1-1.3 3.5-3.6 8.5-15.4 40.2-15.1 40.5.1.2 9.3-6.4 20.3-14.6 24.7-18.5 25.6-19.2 26.9-20.4.6-.6 2.8-2.1 4.8-3.3 4.4-2.7 5.8-5.7 12.8-25.7 2.8-8.3 5.7-16.4 6.4-18 .7-1.7 2.5-6.6 4.1-11 1.5-4.4 3.3-9.4 4-11 1.2-2.7 2.5-6.5 3.1-9 .2-.6 2.8-7.8 5.9-16 5.8-15.5 6.5-17.4 6.4-17.8 0-.1 1.4-3.5 3-7.5 1.6-3.9 2.7-7.2 2.4-7.2-.3 0-.1-.6.4-1.3.5-.6 2.2-4.8 3.7-9.2 1.6-4.4 3.5-9.5 4.3-11.4.8-1.8 1.6-3.9 1.8-4.5.1-.6.5-2 .9-3.1 1.9-5 6.9-18.5 8.6-23 1-2.8 3.2-8.8 5-13.5 1.8-4.7 3.3-9 3.4-9.5.2-.8 3.9-11.2 6.3-17.5.4-.8.7-1.7.8-2 1.4-4.2 2.7-6.2 3.5-5.4.5.5 2.1 4.1 3.4 7.9 1.4 3.9 3.5 9.5 4.6 12.5 1.2 3 2.6 6.8 3.1 8.5.5 1.6 1.3 3.9 1.8 5s4.2 10.8 8.1 21.5c3.9 10.7 7.5 20.4 8 21.5.5 1.1 1.6 4 2.4 6.5.8 2.5 2 5.8 2.7 7.5.7 1.6 1.3 3.2 1.3 3.5.1.3.6 1.8 1.3 3.5 1.1 3.1 1.8 4.8 10.3 28 2.9 7.7 6.5 17.6 8.1 22 1.7 4.4 3.4 8.9 3.9 10 .5 1.1 3 7.8 5.5 15 2.6 7.1 5.3 14.6 6.1 16.5.7 1.9 3.5 9.7 6.2 17.3l4.8 13.7 13.3 10c7.3 5.5 13.7 10 14.1 10 .5 0 1 .3 1.2.8.4.9 13.5 11.2 14.3 11.2.3 0 1.5.9 2.7 2 6 5.5 12.6 8.7 10.2 4.8-.5-.7-.9-1.8-1.1-2.3-.1-.6-2.7-7.5-5.8-15.5-3.1-8-6-15.7-6.5-17.1-.4-1.5-1.5-4.2-2.3-6-.8-1.9-7.7-19.8-15.2-39.9-7.6-20.1-14.4-37.9-15.1-39.5-.7-1.7-2.9-7.5-4.9-13-2-5.5-4.1-11.1-4.7-12.5-.9-2.1-11.4-29.7-19.3-50.5-1.2-3.3-4.3-11.6-6.9-18.5-2.6-6.9-5.2-13.4-5.6-14.5-.5-1.1-5.3-13.5-10.5-27.5-13.6-36-15.7-41.3-16.8-42.8-1.4-1.8-45.3-1.4-46.8.5z"/><path d="M176.3 206.5c-4 4-7.5 7-7.8 6.6-.3-.3-.8.5-1.2 1.7-.3 1.2-.9 2.2-1.5 2.2-1.2 0-9.4 8.2-9.1 9.2.2.4-.3.7-1 .5-.6-.1-1.1.4-1 1.1.2.6 0 1.1-.5 1-1.5-.3-4.2 1.5-4.2 2.8 0 .8-.5 1.4-1.1 1.4-1.7 0-13.2 11.8-12.5 12.8.3.6-.1 1.3-1 1.6-.9.4-1.4 1.3-1 2.1.3.8.1 1.5-.4 1.5-.6 0-1 .7-1 1.5s-.4 2.3-.9 3.3c-1.2 2.2-2.5 5.4-2.6 6.7-.1.5-.9 2.5-1.8 4.3-1 1.8-1.5 3.7-1.2 4.2.3.6.2 1-.3 1-.9 0-2.5 4-2.6 6.5-.1.5-.7 1.6-1.3 2.3-.7.7-1.3 2-1.3 2.8 0 1.5.2 1.4 7.6-5.3 1.3-1.2 2.4-2 2.4-1.8 0 .6 4.1-2.9 7.9-6.6 1.4-1.4 3.4-2.8 4.4-3.2 1.1-.4 1.5-1.2 1.1-1.8-.4-.7-.3-.9.3-.6.6.4 2.4-.7 4.2-2.3 1.7-1.7 3.3-3 3.6-3 .5 0 1.4-.7 9.9-8 2.7-2.3 5.9-4.8 7.2-5.7 1.3-.8 2.1-2 1.7-2.7-.3-.6-.3-.8.2-.4 1.1 1.1 6.7-3.1 5.9-4.4-.4-.6-.2-.8.3-.5.6.4 2.2-.4 3.5-1.6 2.8-2.6 4.2-2.4 7.3.9 1.2 1.3 2.5 2.4 2.8 2.4.4 0 2.3 1.6 4.3 3.5s4.1 3.2 4.7 2.8c.7-.3.9-.3.5.2-.7.7 1.3 3.3 2.8 3.8.4.1 1.9 1.3 3.3 2.7 1.4 1.4 4.8 4.3 7.5 6.5s6 5 7.2 6.2c1.3 1.3 2.5 2.3 2.8 2.3.3 0 1.6 1 2.9 2.2 4.8 4.7 8.7 7.8 9.8 7.8.5 0 .7.4.4 1-.6 1 .9 1.5 3 1 .5-.1.7.1.3.5-.7.7 1.5 3.5 2.7 3.5.3 0 1.7 1.2 3 2.6 1.4 1.5 2.5 2.4 2.5 2.1 0-.9-3.9-11-5-12.9-.6-1-1-2.5-1-3.3 0-1-.5-1.3-1.2-.9-.6.4-.8.3-.5-.3.9-1.5-6.7-20.5-7.8-19.6-.4.5-.5.3-.2-.4 1.4-2.3-4.4-11.3-7.2-11.3-.7 0-.9-.5-.5-1.2.5-.8.2-.9-1-.5-.9.4-1.5.3-1.2-.1.7-1.1-3-4.2-3.9-3.4-.4.4-.5.2-.3-.4.1-.6-2.1-3.3-5.1-6-2.9-2.7-8-7.5-11.2-10.7-3.2-3.1-6.1-5.7-6.3-5.7-.3 0-2.7-2.1-5.3-4.8-7.9-7.8-6.9-7.8-15 .3z"/></svg>