<svg xmlns="http://www.w3.org/2000/svg" xmlns:xlink="http://www.w3.org/1999/xlink" width="448" height="310" fill="none"><g clip-path="url(#A)"><g fill="#e6e6e6"><path d="M407.832 161.64c-6.04 17.054-14.455 33.173-24.998 47.882l-.738 1.016-31.988-10.345.47-1.103c10.073-23.796 70.7-168.85 64.263-199.1.615 2.483 20.702 84.64-7 161.64z"/><path d="M389.005 211.518l-1.2.867-23.996-7.76 1.005-.93c6.282-5.863 24.943-23.43 43.017-42.054 19.424-20.013 38.173-41.242 40.168-50.475-.375 2.107-12.2 66.194-58.995 100.353z"/></g><path d="M425.154 310H13.793c-3.658 0-7.167-1.45-9.753-4.034S0 299.88 0 296.226c149.118-17.307 295.434-17.307 438.947 0 0 3.653-1.453 7.157-4.04 9.74a13.8 13.8 0 0 1-9.753 4.034z" fill="#2f2e41"/><path d="M438.947 297.036L0 296.226l51.116-85.886V21.95a17.39 17.39 0 0 1 1.327-6.664 17.41 17.41 0 0 1 3.78-5.649c1.62-1.617 3.54-2.9 5.657-3.774s4.383-1.325 6.673-1.325h299.41a17.46 17.46 0 0 1 6.673 1.325 17.44 17.44 0 0 1 5.657 3.774c1.62 1.617 2.903 3.536 3.78 5.65a17.36 17.36 0 0 1 1.327 6.664v189.686l53.55 85.4z" fill="#3f3d56"/><path d="M68.155 16.692a5.69 5.69 0 0 0-4.014 1.663c-1.065 1.063-1.664 2.505-1.665 4.01v171.772c.002 1.504.6 2.945 1.666 4.01a5.69 5.69 0 0 0 4.014 1.663h302.64c1.505-.002 2.95-.6 4.014-1.663s1.663-2.505 1.665-4.01V22.363a5.67 5.67 0 0 0-1.665-4.008 5.69 5.69 0 0 0-4.014-1.663H68.155z" fill="#fff"/><path d="M70.143 222.494c-.465 0-.92.134-1.312.385s-.704.608-.9 1.03l-15.675 34.03c-.17.37-.245.777-.217 1.184s.158.8.38 1.143a2.43 2.43 0 0 0 2.05 1.119h329.645a2.44 2.44 0 0 0 1.185-.307c.362-.202.667-.493.885-.846a2.42 2.42 0 0 0 .361-1.168c.02-.414-.07-.826-.255-1.197l-17.038-34.03c-.2-.404-.512-.745-.896-.982s-.83-.363-1.28-.36H70.143z" fill="#2f2e41"/><path d="M218.257 13.856a3.65 3.65 0 0 0 3.651-3.646 3.65 3.65 0 1 0-7.303 0 3.65 3.65 0 0 0 3.652 3.646z" fill="#fff"/><g fill="#2f2e41"><path d="M185.855 267.867c-.535.001-1.055.177-1.48.502a2.44 2.44 0 0 0-.87 1.297l-3.932 14.584c-.097.36-.1.738-.038 1.104a2.44 2.44 0 0 0 .456 1.007 2.43 2.43 0 0 0 .855.701 2.44 2.44 0 0 0 1.077.251H256.7c.388 0 .77-.092 1.116-.27a2.44 2.44 0 0 0 .867-.751 2.42 2.42 0 0 0 .426-1.064 2.43 2.43 0 0 0-.109-1.141l-5.056-14.584c-.165-.478-.476-.892-.888-1.185s-.906-.45-1.412-.45h-65.8zm199.542-60.363v3.24H50.872l.252-.405v-2.836h334.273z"/></g><g fill="#e6e6e6"><path d="M281.394 47.04h-78.928v1.44h78.928c3.886 0 7.613 1.54 10.36 4.285s4.3 6.466 4.3 10.346a14.63 14.63 0 0 1-4.29 10.346 14.66 14.66 0 0 1-10.36 4.285h-119.43c-3.886 0-7.613-1.54-10.36-4.285s-4.3-6.466-4.3-10.346a14.63 14.63 0 0 1 4.29-10.346 14.66 14.66 0 0 1 10.36-4.285h4.463v-1.44h-4.463c-4.267.002-8.358 1.697-11.374 4.7a16.06 16.06 0 0 0 0 22.721 16.05 16.05 0 0 0 11.374 4.7h119.43a16.14 16.14 0 0 0 6.162-1.22 16.05 16.05 0 0 0 5.224-3.483 16.08 16.08 0 0 0 3.49-5.215 16.04 16.04 0 0 0 0-12.305c-.8-1.95-1.995-3.722-3.5-5.215s-3.27-2.676-5.224-3.483a16.1 16.1 0 0 0-6.162-1.22zm0 49.667h-78.928v1.44h78.928a14.66 14.66 0 0 1 10.355 4.289 14.62 14.62 0 0 1 4.288 10.343c0 3.88-1.542 7.6-4.288 10.342a14.66 14.66 0 0 1-10.355 4.289h-119.43c-3.886 0-7.613-1.54-10.36-4.285s-4.3-6.466-4.3-10.346a14.62 14.62 0 0 1 4.291-10.346c2.748-2.744 6.475-4.286 10.36-4.286h4.463v-1.44h-4.463c-4.267.002-8.358 1.697-11.374 4.7a16.06 16.06 0 0 0 0 22.721 16.1 16.1 0 0 0 11.374 4.71h119.43a16.12 16.12 0 0 0 6.162-1.221 16.09 16.09 0 0 0 5.224-3.483c1.496-1.493 2.682-3.265 3.5-5.215a16.04 16.04 0 0 0 1.226-6.152c0-2.112-.416-4.202-1.226-6.153s-1.995-3.722-3.5-5.215-3.27-2.676-5.224-3.483a16.1 16.1 0 0 0-6.162-1.22zm0 49.668h-78.928v1.44h78.928a14.66 14.66 0 0 1 10.36 4.286 14.62 14.62 0 0 1 4.29 10.346c0 3.88-1.544 7.602-4.3 10.346a14.66 14.66 0 0 1-10.36 4.285h-119.43c-3.886 0-7.613-1.54-10.36-4.285s-4.3-6.466-4.3-10.346a14.63 14.63 0 0 1 4.29-10.346 14.66 14.66 0 0 1 10.36-4.286h4.463v-1.44h-4.463a16.1 16.1 0 0 0-11.38 4.707 16.06 16.06 0 0 0 0 22.728 16.1 16.1 0 0 0 11.38 4.707h119.43a16.12 16.12 0 0 0 6.159-1.223 16.08 16.08 0 0 0 5.22-3.484 16.06 16.06 0 0 0 3.489-5.214 16.07 16.07 0 0 0 0-12.3 16.06 16.06 0 0 0-3.489-5.214c-1.494-1.492-3.268-2.676-5.22-3.484a16.12 16.12 0 0 0-6.159-1.223z"/></g><g fill="#3f3d56"><path d="M175.335 43.237a4.29 4.29 0 0 0-2.986 1.278c-.8.8-1.23 1.88-1.23 3.002s.442 2.2 1.23 3.002a4.29 4.29 0 0 0 2.986 1.278h18.802c.563.01 1.122-.092 1.646-.3a4.29 4.29 0 0 0 2.358-2.278 4.27 4.27 0 0 0 .353-1.633 4.28 4.28 0 0 0-.3-1.643c-.206-.523-.514-1-.906-1.404s-.86-.727-1.375-.95a4.29 4.29 0 0 0-1.635-.353 4.14 4.14 0 0 0-.141 0h-18.802zm0 50.387a4.29 4.29 0 0 0-2.986 1.278c-.8.8-1.23 1.88-1.23 3.002a4.28 4.28 0 0 0 1.23 3.002c.788.8 1.86 1.26 2.986 1.278h18.802c1.137.02 2.235-.414 3.052-1.204a4.28 4.28 0 0 0 .099-6.053 4.29 4.29 0 0 0-3.01-1.303c-.047-.001-.094-.001-.14 0h-18.802zm0 48.948c-1.125.018-2.197.477-2.986 1.278s-1.23 1.878-1.23 3.002a4.28 4.28 0 0 0 1.231 3.002 4.29 4.29 0 0 0 2.986 1.278h18.802c1.137.018 2.235-.415 3.052-1.204a4.28 4.28 0 0 0 1.305-3.006c.02-1.135-.415-2.23-1.206-3.047s-1.873-1.285-3-1.303c-.047-.001-.094-.001-.14 0h-18.802z"/></g><g fill="#01bf71"><path d="M167.877 58.83a4.29 4.29 0 0 0-2.986 1.278c-.8.8-1.23 1.88-1.23 3.002a4.28 4.28 0 0 0 1.23 3.002 4.29 4.29 0 0 0 2.986 1.278H275.34a4.29 4.29 0 0 0 4.003-2.577 4.27 4.27 0 0 0 .353-1.633 4.26 4.26 0 0 0-.3-1.643c-.207-.523-.515-1-.907-1.404s-.858-.727-1.375-.95a4.29 4.29 0 0 0-1.635-.353c-.047-.001-.094-.001-.14 0H167.877zm0 49.668a4.3 4.3 0 0 0-2.986 1.278 4.28 4.28 0 0 0 0 6.005 4.29 4.29 0 0 0 2.986 1.278H275.34a4.31 4.31 0 0 0 1.646-.299c.523-.207 1-.514 1.406-.905a4.29 4.29 0 0 0 .952-1.374c.224-.515.344-1.07.353-1.632s-.093-1.12-.3-1.643a4.27 4.27 0 0 0-.906-1.404c-.392-.404-.86-.727-1.375-.95a4.32 4.32 0 0 0-1.635-.353H167.877z"/></g><path d="M167.877 158.166c-1.125.018-2.197.477-2.986 1.278a4.28 4.28 0 0 0 0 6.004c.79.8 1.86 1.26 2.986 1.278H275.34a4.29 4.29 0 0 0 3.052-1.204c.404-.39.728-.857.952-1.373s.344-1.07.353-1.633-.093-1.12-.3-1.643-.514-1-.906-1.404-.86-.727-1.375-.95-1.072-.344-1.635-.353c-.047-.001-.094-.001-.14 0H167.877z" fill="#e6e6e6"/><use xlink:href="#B" fill="#01bf71"/><path d="M127.168 66.296l-2.5-3.21 1.454-1.13 1.185 1.52 4-4.216 1.338 1.266-5.475 5.77z" fill="#fff"/><use xlink:href="#C" fill="#01bf71"/><path d="M127.168 115.963l-2.5-3.21 1.454-1.13 1.185 1.52 4-4.216 1.338 1.265-5.475 5.77z" fill="#fff"/><g fill="#e6e6e6"><path d="M127.964 170.68a8.58 8.58 0 0 0 8.583-8.571 8.583 8.583 0 1 0-17.166 0 8.58 8.58 0 0 0 8.583 8.571zm188.132-99.335a8.58 8.58 0 0 0 8.583-8.571 8.583 8.583 0 1 0-17.166 0 8.58 8.58 0 0 0 8.583 8.571zm0 49.668a8.58 8.58 0 0 0 8.583-8.572 8.583 8.583 0 1 0-17.166 0 8.58 8.58 0 0 0 8.583 8.572zm0 49.667a8.58 8.58 0 0 0 8.583-8.571 8.583 8.583 0 1 0-17.166 0c0 4.734 3.842 8.57 8.583 8.57z"/></g><g fill="#fff"><path d="M127.168 165.63l-2.5-3.2 1.454-1.13 1.185 1.52 4-4.217 1.338 1.265-5.475 5.772zm186.76-105.6l-.715.713 4.8 4.793.714-.713-4.8-4.793z"/><path d="M318.265 60.02l-4.8 4.793.714.713 4.8-4.793-.714-.713zm-4.338 49.668l-.715.714 4.8 4.793.714-.714-4.8-4.793z"/><path d="M318.265 109.688l-4.8 4.793.714.714 4.8-4.793-.714-.714zm-4.338 49.668l-.715.713 4.8 4.793.714-.713-4.8-4.793z"/><path d="M318.265 159.356l-4.8 4.793.714.713 4.8-4.793-.714-.713z"/></g><g fill="#ffb8b8"><path d="M129.615 158.675a6.17 6.17 0 0 0 1.85-1.905c.47-.76.772-1.615.88-2.504a6.19 6.19 0 0 0-.249-2.642 6.2 6.2 0 0 0-1.335-2.295l-8.24-8.97-7.914 4.002 6.057 11.947a6.17 6.17 0 0 0 1.63 2.015 6.2 6.2 0 0 0 4.903 1.297c.862-.14 1.686-.464 2.415-.946zM23.102 185.313c.9-.104 1.748-.4 2.513-.865s1.42-1.093 1.92-1.836.83-1.586.973-2.47.1-1.788-.153-2.65l-3.294-11.72h-8.87v13.392a6.18 6.18 0 0 0 .543 2.533 6.2 6.2 0 0 0 1.533 2.089c.653.58 1.422 1.017 2.255 1.28a6.22 6.22 0 0 0 2.582.246zm51.24 88.407l16.757-2.625-6.9-7.22h-9.857v9.844zm-53.882.655l17.413 4.593c-3.207-6.644-5.182-12.523-3.943-16.405l-8.214-.984-5.257 12.796z"/></g><g fill="#575a88"><path d="M24.074 263.22l10.186 1.97 27.927-89.9 11.828 89.572h10.842l-.986-126.647H41.816L24.074 263.22zm53.476 14.483l16.575-5.445a3.22 3.22 0 0 0 1.183-.696 3.21 3.21 0 0 0 .786-1.124 3.22 3.22 0 0 0 .246-1.349 3.21 3.21 0 0 0-.338-1.328 3.22 3.22 0 0 0-3.1-1.772l-3.76.253-1.474-.828a.86.86 0 0 0-.988.105c-.133.118-.227.274-.267.448s-.025.355.042.52l1.36 3.295-13.8-.984-.68 5.44a3.23 3.23 0 0 0 .204 1.595 3.22 3.22 0 0 0 .95 1.298 3.23 3.23 0 0 0 3.064.574zm-56.02 2.503l18.017 1.166c.478.03.957-.04 1.405-.2a3.34 3.34 0 0 0 1.19-.777c.337-.34.594-.75.758-1.2a3.33 3.33 0 0 0-.518-3.201c-.408-.515-.96-.9-1.584-1.103l-3.708-1.206-1.094-1.364c-.115-.143-.273-.247-.45-.298a.89.89 0 0 0-.969.345.88.88 0 0 0-.16.514l.03 3.688-12.866-6.268-2.758 4.96a3.34 3.34 0 0 0-.421 1.61 3.32 3.32 0 0 0 .41 1.612 3.34 3.34 0 0 0 1.137 1.215 3.37 3.37 0 0 0 1.583.518z"/></g><g fill="#ffb8b8"><path d="M59.886 67.343c6.714 0 12.157-5.435 12.157-12.14s-5.443-12.14-12.157-12.14-12.157 5.435-12.157 12.14 5.443 12.14 12.157 12.14z"/><path d="M52 77.514h16.756V61.437H52c1.385 4.965 1.206 10.375 0 16.077z"/></g><g fill="#01bf71"><path d="M39.516 139.853l45.998.656 4.6-48.528a15.14 15.14 0 0 0-2.84-8.826c-1.847-2.574-4.454-4.505-7.456-5.523L72.7 75.217l-3.943-4.593c-4.978-1.074-10.394-.814-16.1.328l-4.27 6.234-4.6 1.466c-3.126.996-5.842 2.98-7.74 5.653s-2.875 5.89-2.783 9.164c3.423 17.654 6.084 34.06 6.252 46.385z"/><path d="M14.546 165.773l11.5 1.313 13.142-52.825L40.5 80.14l-.388.188a21.76 21.76 0 0 0-7.761 6.3 21.72 21.72 0 0 0-4.12 9.102l-13.686 70.045zm100.537-19.686l8.87-4.265-26.02-48.485a34 34 0 0 0-17.35-15.495l4.928 30.84 29.57 37.404z"/></g><path d="M52.373 66.13s11.92-.706 12.18-2.765 2-6.756 4.06-6.498 7.776-6.607 6.552-9.373-7-12.955-18.792-8.26-10.44 16.47-9.217 19.238 5.218 7.658 5.218 7.658z" fill="#2f2e41"/><g fill="#01bf71"><path d="M344.107 214.928a.59.59 0 0 0-.361.123.64.64 0 0 0-.212.315l-.957 3.552a.58.58 0 0 0 .101.514.58.58 0 0 0 .208.17.59.59 0 0 0 .262.06h18.2a.59.59 0 0 0 .27-.066.6.6 0 0 0 .212-.183c.055-.077.1-.166.103-.26s.005-.2-.026-.278l-1.23-3.55a.59.59 0 0 0-.56-.389h-16.02zm-26.59 0a.59.59 0 0 0-.36.123.64.64 0 0 0-.212.315l-.957 3.552a.58.58 0 0 0-.009.269.72.72 0 0 0 .1.245.61.61 0 0 0 .209.171c.08.04.17.06.262.06h18.2a.59.59 0 0 0 .481-.249c.055-.077.1-.166.104-.26a.58.58 0 0 0-.027-.278l-1.23-3.55a.59.59 0 0 0-.216-.289c-.1-.07-.22-.1-.344-.1H317.5z"/></g></g><defs><clipPath id="A"><path fill="#fff" d="M0 0h448v310H0z"/></clipPath><path id="B" d="M127.964 71.345a8.58 8.58 0 0 0 8.583-8.571 8.58 8.58 0 1 0-17.166 0 8.58 8.58 0 0 0 8.583 8.571z"/><path id="C" d="M127.964 121.013a8.58 8.58 0 0 0 8.583-8.572 8.58 8.58 0 1 0-17.166 0 8.58 8.58 0 0 0 8.583 8.572z"/></defs></svg>