<svg width="448" height="310" viewBox="0 0 448 310" fill="none" xmlns="http://www.w3.org/2000/svg">
<g clip-path="url(#clip0)">
<path d="M407.832 161.64C401.792 178.694 393.377 194.813 382.834 209.522C382.591 209.864 382.344 210.198 382.096 210.538L350.108 200.193C350.252 199.863 350.41 199.494 350.579 199.09C360.652 175.294 421.28 30.2409 414.842 0C415.457 2.48322 435.544 84.6386 407.832 161.64Z" fill="#E6E6E6"/>
<path d="M389.005 211.518C388.614 211.812 388.212 212.102 387.806 212.385L363.81 204.624C364.097 204.359 364.43 204.047 364.815 203.694C371.097 197.831 389.758 180.264 407.832 161.64C427.256 141.627 446.005 120.398 448 111.165C447.625 113.272 435.79 177.359 389.005 211.518Z" fill="#E6E6E6"/>
<path d="M425.154 310H13.7932C10.135 310 6.62664 308.549 4.03992 305.966C1.4532 303.383 0 299.879 0 296.226C149.118 278.919 295.434 278.919 438.947 296.226C438.947 299.879 437.494 303.383 434.907 305.966C432.321 308.549 428.812 310 425.154 310Z" fill="#2F2E41"/>
<path d="M438.947 297.036L0 296.226L50.8725 210.745L51.1159 210.34V21.95C51.1157 19.6634 51.5665 17.3991 52.4427 15.2864C53.3189 13.1738 54.6032 11.2542 56.2224 9.63733C57.8415 8.02042 59.7637 6.73786 61.8793 5.86288C63.9948 4.98791 66.2622 4.53767 68.552 4.53786H367.961C370.251 4.53767 372.518 4.98792 374.634 5.86289C376.749 6.73787 378.672 8.02043 380.291 9.63734C381.91 11.2542 383.194 13.1738 384.07 15.2864C384.947 17.3991 385.398 19.6634 385.397 21.95V211.636L438.947 297.036Z" fill="#3F3D56"/>
<path d="M68.1545 16.6915C66.6487 16.6932 65.205 17.2913 64.1403 18.3546C63.0755 19.4179 62.4766 20.8595 62.4749 22.3632V194.135C62.4767 195.639 63.0756 197.08 64.1404 198.144C65.2051 199.207 66.6487 199.805 68.1545 199.807H370.793C372.298 199.805 373.742 199.207 374.807 198.144C375.872 197.08 376.47 195.639 376.472 194.135V22.3632C376.471 20.8595 375.872 19.4179 374.807 18.3547C373.742 17.2914 372.299 16.6933 370.793 16.6915H68.1545Z" fill="white"/>
<path d="M70.1434 222.494C69.6781 222.494 69.2227 222.628 68.8309 222.879C68.4391 223.129 68.1272 223.487 67.932 223.908L52.2566 257.939C52.086 258.309 52.0113 258.716 52.0396 259.123C52.0678 259.53 52.198 259.923 52.4182 260.266C52.6384 260.609 52.9415 260.892 53.2997 261.087C53.6578 261.283 54.0594 261.385 54.4677 261.385H384.113C384.528 261.385 384.936 261.279 385.298 261.078C385.66 260.876 385.965 260.585 386.183 260.232C386.401 259.88 386.526 259.478 386.544 259.064C386.563 258.65 386.475 258.238 386.289 257.867L369.251 223.837C369.05 223.433 368.739 223.092 368.355 222.855C367.97 222.617 367.526 222.492 367.074 222.494L70.1434 222.494Z" fill="#2F2E41"/>
<path d="M218.257 13.8557C220.273 13.8557 221.908 12.2232 221.908 10.2096C221.908 8.19587 220.273 6.56346 218.257 6.56346C216.24 6.56346 214.605 8.19587 214.605 10.2096C214.605 12.2232 216.24 13.8557 218.257 13.8557Z" fill="white"/>
<path d="M185.855 267.867C185.32 267.868 184.8 268.044 184.375 268.369C183.951 268.694 183.645 269.15 183.505 269.666L179.573 284.25C179.476 284.61 179.463 284.988 179.535 285.354C179.608 285.72 179.764 286.065 179.991 286.361C180.218 286.657 180.511 286.897 180.846 287.062C181.181 287.227 181.55 287.313 181.923 287.313H256.701C257.089 287.313 257.472 287.221 257.817 287.043C258.161 286.865 258.459 286.608 258.684 286.292C258.909 285.977 259.055 285.612 259.11 285.228C259.165 284.845 259.128 284.453 259.001 284.087L253.945 269.503C253.78 269.025 253.469 268.611 253.057 268.318C252.645 268.025 252.151 267.868 251.645 267.867L185.855 267.867Z" fill="#2F2E41"/>
<path d="M385.397 207.504V210.745H50.8722L51.1242 210.34V207.504H385.397Z" fill="#2F2E41"/>
<path d="M281.394 47.04H202.466V48.4797H281.394C285.28 48.4797 289.007 50.0212 291.755 52.7651C294.502 55.5091 296.046 59.2306 296.046 63.1111C296.046 66.9917 294.502 70.7132 291.755 73.4572C289.007 76.2011 285.28 77.7426 281.394 77.7426H161.963C158.077 77.7426 154.35 76.2011 151.602 73.4572C148.855 70.7132 147.311 66.9917 147.311 63.1111C147.311 59.2306 148.855 55.5091 151.602 52.7651C154.35 50.0212 158.077 48.4797 161.963 48.4797H166.426V47.04H161.963C157.696 47.0425 153.605 48.7368 150.589 51.7505C147.573 54.7641 145.879 58.8504 145.879 63.1111C145.879 67.3718 147.573 71.4582 150.589 74.4718C153.605 77.4855 157.696 79.1798 161.963 79.1823H281.394C283.509 79.1835 285.602 78.7687 287.556 77.9616C289.51 77.1545 291.285 75.9709 292.78 74.4785C294.276 72.986 295.462 71.2139 296.271 69.2635C297.081 67.313 297.497 65.2224 297.497 63.1111C297.497 60.9999 297.081 58.9093 296.271 56.9588C295.462 55.0084 294.276 53.2363 292.78 51.7438C291.285 50.2513 289.51 49.0677 287.556 48.2606C285.602 47.4535 283.509 47.0388 281.394 47.04Z" fill="#E6E6E6"/>
<path d="M281.394 96.7074H202.466V98.147H281.394C285.279 98.1494 289.003 99.692 291.749 102.436C294.495 105.179 296.037 108.9 296.037 112.779C296.037 116.658 294.495 120.378 291.749 123.121C289.003 125.865 285.279 127.408 281.394 127.41H161.963C158.077 127.41 154.35 125.869 151.602 123.125C148.855 120.381 147.311 116.659 147.311 112.779C147.311 108.898 148.855 105.176 151.602 102.433C154.35 99.6886 158.077 98.147 161.963 98.147H166.426V96.7074H161.963C157.696 96.7099 153.605 98.4042 150.589 101.418C147.573 104.432 145.879 108.518 145.879 112.779C145.879 117.039 147.573 121.126 150.589 124.139C153.605 127.153 157.696 128.847 161.963 128.85H281.394C283.509 128.851 285.602 128.436 287.556 127.629C289.51 126.822 291.285 125.638 292.78 124.146C294.276 122.653 295.462 120.881 296.271 118.931C297.081 116.98 297.497 114.89 297.497 112.779C297.497 110.667 297.081 108.577 296.271 106.626C295.462 104.676 294.276 102.904 292.78 101.411C291.285 99.9187 289.51 98.7351 287.556 97.9281C285.602 97.121 283.509 96.7062 281.394 96.7074Z" fill="#E6E6E6"/>
<path d="M281.394 146.375H202.466V147.814H281.394C285.28 147.814 289.007 149.356 291.755 152.1C294.502 154.844 296.046 158.565 296.046 162.446C296.046 166.326 294.502 170.048 291.755 172.792C289.007 175.536 285.28 177.077 281.394 177.077H161.963C158.077 177.077 154.35 175.536 151.602 172.792C148.855 170.048 147.311 166.326 147.311 162.446C147.311 158.565 148.855 154.844 151.602 152.1C154.35 149.356 158.077 147.814 161.963 147.814H166.426V146.375H161.963C157.694 146.375 153.601 148.068 150.583 151.082C147.565 154.096 145.869 158.184 145.869 162.446C145.869 166.708 147.565 170.796 150.583 173.81C153.601 176.824 157.694 178.517 161.963 178.517H281.394C283.508 178.517 285.601 178.101 287.553 177.294C289.506 176.486 291.28 175.302 292.774 173.81C294.269 172.318 295.454 170.546 296.263 168.596C297.071 166.646 297.488 164.556 297.488 162.446C297.488 160.335 297.071 158.246 296.263 156.296C295.454 154.346 294.269 152.574 292.774 151.082C291.28 149.59 289.506 148.406 287.553 147.598C285.601 146.791 283.508 146.375 281.394 146.375Z" fill="#E6E6E6"/>
<path d="M175.335 43.2367C174.21 43.255 173.138 43.7139 172.349 44.5146C171.56 45.3153 171.118 46.3935 171.118 47.5168C171.118 48.6401 171.56 49.7183 172.349 50.519C173.138 51.3197 174.21 51.7786 175.335 51.7969H194.137C194.7 51.8061 195.259 51.7045 195.783 51.498C196.307 51.2914 196.784 50.9839 197.189 50.5929C197.593 50.202 197.917 49.7354 198.141 49.2196C198.365 48.7039 198.485 48.1491 198.494 47.5871C198.503 47.025 198.401 46.4666 198.194 45.9438C197.988 45.421 197.68 44.944 197.288 44.54C196.897 44.1361 196.429 43.813 195.913 43.5894C195.397 43.3658 194.841 43.246 194.278 43.2367C194.231 43.2359 194.184 43.2359 194.137 43.2367H175.335Z" fill="#3F3D56"/>
<path d="M175.335 93.6239C174.21 93.6422 173.138 94.1011 172.349 94.9018C171.56 95.7025 171.118 96.7808 171.118 97.904C171.118 99.0273 171.56 100.106 172.349 100.906C173.138 101.707 174.21 102.166 175.335 102.184H194.137C195.274 102.203 196.372 101.77 197.189 100.98C198.006 100.191 198.475 99.1095 198.494 97.9743C198.512 96.8392 198.079 95.7431 197.288 94.9273C196.498 94.1114 195.415 93.6426 194.278 93.6239C194.231 93.6232 194.184 93.6232 194.137 93.6239H175.335Z" fill="#3F3D56"/>
<path d="M175.335 142.572C174.21 142.59 173.138 143.049 172.349 143.85C171.56 144.65 171.118 145.728 171.118 146.852C171.118 147.975 171.56 149.053 172.349 149.854C173.138 150.654 174.21 151.113 175.335 151.132H194.137C195.274 151.15 196.372 150.717 197.189 149.928C198.006 149.138 198.475 148.057 198.494 146.922C198.513 145.787 198.079 144.691 197.288 143.875C196.498 143.059 195.415 142.59 194.278 142.572C194.231 142.571 194.184 142.571 194.137 142.572H175.335Z" fill="#3F3D56"/>
<path d="M167.877 58.8311C166.752 58.8493 165.68 59.3083 164.891 60.1089C164.102 60.9096 163.66 61.9879 163.66 63.1111C163.66 64.2344 164.102 65.3126 164.891 66.1133C165.68 66.914 166.752 67.373 167.877 67.3912H275.34C275.902 67.4004 276.462 67.2989 276.985 67.0923C277.509 66.8857 277.986 66.5782 278.391 66.1873C278.795 65.7964 279.119 65.3297 279.343 64.814C279.567 64.2982 279.687 63.7435 279.696 63.1814C279.705 62.6193 279.603 62.061 279.397 61.5381C279.19 61.0153 278.882 60.5383 278.49 60.1344C278.099 59.7304 277.632 59.4074 277.115 59.1838C276.599 58.9601 276.043 58.8403 275.48 58.8311C275.433 58.8303 275.386 58.8303 275.34 58.8311H167.877Z" fill="#01BF71"/>
<path d="M167.877 108.498C166.752 108.517 165.68 108.976 164.891 109.776C164.102 110.577 163.66 111.655 163.66 112.779C163.66 113.902 164.102 114.98 164.891 115.781C165.68 116.581 166.752 117.04 167.877 117.059H275.339C275.902 117.068 276.461 116.966 276.985 116.76C277.508 116.553 277.986 116.246 278.391 115.855C278.795 115.464 279.119 114.997 279.343 114.481C279.567 113.966 279.687 113.411 279.696 112.849C279.705 112.287 279.603 111.728 279.396 111.206C279.19 110.683 278.882 110.206 278.49 109.802C278.099 109.398 277.631 109.075 277.115 108.851C276.598 108.628 276.043 108.508 275.48 108.498C275.433 108.498 275.386 108.498 275.339 108.498H167.877Z" fill="#01BF71"/>
<path d="M167.877 158.166C166.752 158.184 165.68 158.643 164.891 159.444C164.102 160.245 163.66 161.323 163.66 162.446C163.66 163.569 164.102 164.647 164.891 165.448C165.68 166.249 166.752 166.708 167.877 166.726H275.339C275.902 166.735 276.461 166.634 276.985 166.427C277.508 166.221 277.986 165.913 278.391 165.522C278.795 165.131 279.119 164.665 279.343 164.149C279.567 163.633 279.687 163.078 279.696 162.516C279.705 161.954 279.603 161.396 279.396 160.873C279.19 160.35 278.882 159.873 278.49 159.469C278.099 159.065 277.631 158.742 277.115 158.519C276.598 158.295 276.043 158.175 275.48 158.166C275.433 158.165 275.386 158.165 275.339 158.166H167.877Z" fill="#E6E6E6"/>
<path d="M127.964 71.3453C132.704 71.3453 136.547 67.5078 136.547 62.774C136.547 58.0402 132.704 54.2027 127.964 54.2027C123.224 54.2027 119.381 58.0402 119.381 62.774C119.381 67.5078 123.224 71.3453 127.964 71.3453Z" fill="#01BF71"/>
<path d="M127.168 66.2955L124.667 63.0849L126.121 61.9554L127.306 63.4755L131.305 59.2593L132.643 60.5249L127.168 66.2955Z" fill="white"/>
<path d="M127.964 121.013C132.704 121.013 136.547 117.175 136.547 112.441C136.547 107.708 132.704 103.87 127.964 103.87C123.224 103.87 119.381 107.708 119.381 112.441C119.381 117.175 123.224 121.013 127.964 121.013Z" fill="#01BF71"/>
<path d="M127.168 115.963L124.667 112.752L126.121 111.623L127.306 113.143L131.305 108.927L132.643 110.192L127.168 115.963Z" fill="white"/>
<path d="M127.964 170.68C132.704 170.68 136.547 166.843 136.547 162.109C136.547 157.375 132.704 153.537 127.964 153.537C123.224 153.537 119.381 157.375 119.381 162.109C119.381 166.843 123.224 170.68 127.964 170.68Z" fill="#E6E6E6"/>
<path d="M316.096 71.3453C320.836 71.3453 324.679 67.5078 324.679 62.774C324.679 58.0402 320.836 54.2027 316.096 54.2027C311.355 54.2027 307.513 58.0402 307.513 62.774C307.513 67.5078 311.355 71.3453 316.096 71.3453Z" fill="#E6E6E6"/>
<path d="M316.096 121.013C320.836 121.013 324.679 117.175 324.679 112.441C324.679 107.708 320.836 103.87 316.096 103.87C311.355 103.87 307.513 107.708 307.513 112.441C307.513 117.175 311.355 121.013 316.096 121.013Z" fill="#E6E6E6"/>
<path d="M316.096 170.68C320.836 170.68 324.679 166.843 324.679 162.109C324.679 157.375 320.836 153.537 316.096 153.537C311.355 153.537 307.513 157.375 307.513 162.109C307.513 166.843 311.355 170.68 316.096 170.68Z" fill="#E6E6E6"/>
<path d="M127.168 165.631L124.667 162.42L126.121 161.29L127.306 162.811L131.305 158.594L132.643 159.859L127.168 165.631Z" fill="white"/>
<path d="M313.927 60.0208L313.212 60.7342L318.012 65.5271L318.726 64.8137L313.927 60.0208Z" fill="white"/>
<path d="M318.265 60.0208L313.465 64.8137L314.179 65.5271L318.979 60.7342L318.265 60.0208Z" fill="white"/>
<path d="M313.927 109.688L313.212 110.402L318.012 115.195L318.726 114.481L313.927 109.688Z" fill="white"/>
<path d="M318.265 109.688L313.465 114.481L314.179 115.195L318.979 110.402L318.265 109.688Z" fill="white"/>
<path d="M313.927 159.356L313.212 160.069L318.012 164.862L318.726 164.149L313.927 159.356Z" fill="white"/>
<path d="M318.265 159.356L313.465 164.149L314.179 164.862L318.979 160.069L318.265 159.356Z" fill="white"/>
<path d="M129.615 158.675C130.363 158.181 130.994 157.531 131.466 156.77C131.938 156.009 132.238 155.155 132.347 154.266C132.456 153.378 132.371 152.476 132.098 151.624C131.824 150.772 131.369 149.989 130.763 149.329L122.523 140.36L114.609 144.362L120.666 156.309C121.061 157.088 121.617 157.775 122.296 158.324C122.976 158.873 123.764 159.273 124.609 159.496C125.454 159.72 126.337 159.762 127.2 159.621C128.063 159.479 128.886 159.157 129.615 158.675Z" fill="#FFB8B8"/>
<path d="M23.102 185.313C23.9924 185.209 24.8497 184.914 25.6148 184.448C26.3799 183.982 27.0346 183.355 27.5338 182.612C28.033 181.868 28.3648 181.026 28.5063 180.142C28.6478 179.258 28.5956 178.354 28.3534 177.492L25.0593 165.773H16.1884V179.165C16.1884 180.038 16.3733 180.901 16.7312 181.698C17.089 182.494 17.6115 183.206 18.2645 183.787C18.9175 184.368 19.6861 184.804 20.5198 185.067C21.3536 185.33 22.2336 185.413 23.102 185.313Z" fill="#FFB8B8"/>
<path d="M74.3424 273.719L91.0991 271.094L84.1994 263.875H74.3424V273.719Z" fill="#FFB8B8"/>
<path d="M20.4596 274.375L37.873 278.968C34.6657 272.324 32.6907 266.445 33.9303 262.563L25.7164 261.579L20.4596 274.375Z" fill="#FFB8B8"/>
<path d="M24.0735 263.219L34.259 265.188L62.1861 175.288L74.0139 264.86H84.8564L83.8704 138.213H41.8156L24.0735 263.219Z" fill="#575A88"/>
<path d="M77.5505 277.703L94.1252 272.258C94.5649 272.114 94.9683 271.876 95.308 271.562C95.6476 271.248 95.9156 270.865 96.0936 270.438C96.2716 270.011 96.3554 269.551 96.3395 269.089C96.3235 268.627 96.2081 268.174 96.0011 267.761C95.7168 267.193 95.2708 266.722 94.7192 266.407C94.1675 266.091 93.5348 265.946 92.9006 265.989L89.1408 266.242L87.6673 265.414C87.5121 265.327 87.3335 265.29 87.1564 265.309C86.9793 265.328 86.8124 265.401 86.679 265.519C86.5456 265.637 86.4523 265.793 86.4121 265.967C86.3718 266.14 86.3866 266.322 86.4545 266.486L87.8133 269.781L74.014 268.797L73.3331 274.236C73.2655 274.777 73.3358 275.325 73.5374 275.831C73.739 276.336 74.0655 276.783 74.4863 277.129C74.9072 277.475 75.4088 277.709 75.9445 277.809C76.4802 277.91 77.0327 277.873 77.5505 277.703Z" fill="#575A88"/>
<path d="M21.53 280.206L39.5474 281.372C40.0254 281.403 40.5044 281.331 40.952 281.161C41.3995 280.99 41.8051 280.725 42.141 280.384C42.4769 280.043 42.7354 279.634 42.8988 279.185C43.0621 278.735 43.1266 278.255 43.0878 277.779C43.0345 277.124 42.7886 276.5 42.381 275.984C41.9734 275.469 41.4222 275.085 40.7969 274.881L37.0894 273.675L35.9953 272.311C35.88 272.168 35.7228 272.064 35.5455 272.013C35.3682 271.963 35.1796 271.969 35.0059 272.031C34.8323 272.093 34.6822 272.207 34.5765 272.358C34.4709 272.508 34.4149 272.688 34.4164 272.872L34.4461 276.56L21.5799 270.292L18.8224 275.251C18.5485 275.744 18.4039 276.297 18.4018 276.861C18.3997 277.424 18.5403 277.978 18.8105 278.473C19.0807 278.967 19.4717 279.385 19.9472 279.688C20.4227 279.991 20.9672 280.169 21.53 280.206Z" fill="#575A88"/>
<path d="M59.8861 67.3425C66.6 67.3425 72.0427 61.9074 72.0427 55.2028C72.0427 48.4982 66.6 43.063 59.8861 43.063C53.1723 43.063 47.7296 48.4982 47.7296 55.2028C47.7296 61.9074 53.1723 67.3425 59.8861 67.3425Z" fill="#FFB8B8"/>
<path d="M52.0008 77.5137H68.7571V61.4367H52.0008C53.3855 66.4019 53.2065 71.8118 52.0008 77.5137Z" fill="#FFB8B8"/>
<path d="M39.5157 139.853L85.5134 140.509L90.1132 91.9809C90.1132 88.8148 89.1202 85.7282 87.2736 83.1545C85.4271 80.5808 82.8197 78.6492 79.8176 77.631L72.6998 75.217L68.7571 70.6236C63.7793 69.5493 58.3633 69.8097 52.6579 70.9517L48.3867 77.1856L43.7872 78.6515C40.6615 79.6477 37.9449 81.6316 36.0468 84.3042C34.1487 86.9768 33.1721 90.1931 33.2642 93.4683C36.6868 111.122 39.3481 127.529 39.5157 139.853Z" fill="#01BF71"/>
<path d="M14.5456 165.773L26.045 167.086L39.1872 114.261L40.5014 80.1385L40.1134 80.326C37.0715 81.7959 34.4142 83.9529 32.3519 86.6262C30.2896 89.2995 28.879 92.4156 28.2318 95.7277L14.5456 165.773Z" fill="#01BF71"/>
<path d="M115.083 146.087L123.954 141.822L97.9347 93.3366C94.1559 86.2951 88.0129 80.8088 80.5851 77.8418L85.5134 108.683L115.083 146.087Z" fill="#01BF71"/>
<path d="M52.3726 66.1292C52.3726 66.1292 64.2932 65.4232 64.5512 63.3642C64.8093 61.3052 66.5497 56.6082 68.6116 56.8659C70.6735 57.1236 76.3878 50.2594 75.1639 47.4924C73.9401 44.7253 68.164 34.5377 56.3717 39.2332C44.5794 43.9286 45.9307 55.7042 47.1546 58.4713C48.3784 61.2383 52.3726 66.1292 52.3726 66.1292Z" fill="#2F2E41"/>
<path d="M344.107 214.928C343.976 214.928 343.85 214.971 343.746 215.051C343.643 215.13 343.568 215.241 343.534 215.366L342.577 218.918C342.553 219.006 342.55 219.097 342.568 219.187C342.585 219.276 342.623 219.36 342.679 219.432C342.734 219.504 342.805 219.562 342.887 219.603C342.968 219.643 343.058 219.664 343.149 219.664H361.359C361.453 219.664 361.546 219.641 361.63 219.598C361.714 219.555 361.787 219.492 361.842 219.415C361.896 219.338 361.932 219.249 361.945 219.156C361.959 219.062 361.95 218.967 361.919 218.878L360.688 215.327C360.647 215.21 360.572 215.109 360.471 215.038C360.371 214.967 360.251 214.928 360.128 214.928H344.107Z" fill="#01BF71"/>
<path d="M317.518 214.928C317.388 214.928 317.262 214.971 317.158 215.051C317.055 215.13 316.98 215.241 316.946 215.366L315.989 218.918C315.965 219.006 315.962 219.097 315.98 219.187C315.997 219.276 316.035 219.36 316.09 219.432C316.146 219.504 316.217 219.562 316.299 219.603C316.38 219.643 316.47 219.664 316.561 219.664H334.771C334.865 219.664 334.958 219.641 335.042 219.598C335.126 219.555 335.198 219.492 335.253 219.415C335.308 219.338 335.344 219.249 335.357 219.156C335.371 219.062 335.361 218.967 335.33 218.878L334.099 215.327C334.059 215.21 333.983 215.109 333.883 215.038C333.783 214.967 333.663 214.928 333.539 214.928H317.518Z" fill="#01BF71"/>
</g>
<defs>
<clipPath id="clip0">
<rect width="448" height="310" fill="white"/>
</clipPath>
</defs>
</svg>
