<svg xmlns="http://www.w3.org/2000/svg" xmlns:xlink="http://www.w3.org/1999/xlink" viewBox="0 0 85.221 15.818" height="59.785" width="322.095"><defs><filter id="A" color-interpolation-filters="sRGB"><feGaussianBlur stdDeviation=".69"/><feComposite in="SourceGraphic" operator="in"/><feComposite operator="in"/></filter><path id="B" d="M208.52 22.453c3.252-1.807 7.227-5.782 7.227-14.093v-9.757c0-17.346-14.093-33.246-31.44-33.607h-16.262c-18.068 0-32.523 15.9-32.523 33.607V24.62s-1.084 16.984 11.564 40.112l31.078 58.18s11.202 19.514 11.202 34.33v28.91c0 7.95-6.143 14.093-13.732 14.093a13.73 13.73 0 0 1-13.732-13.732v-44.087l-19.152 8.31c-3.252 1.807-7.227 5.782-7.227 14.093v26.018c.36 17.346 14.093 31.44 31.44 32.162h16.262c18.068 0 32.523-14.455 32.523-32.162V158.69s1.084-16.984-11.564-40.112l-31.078-58.542s-11.202-19.152-11.202-33.97V1.855c0-7.95 6.143-14.093 13.732-14.093s13.732 6.143 13.732 14.093v29.27c6.866-2.89 16.984-7.59 19.152-8.673z"/></defs><g transform="matrix(.045907 0 0 .045907 41.02757 3.275187)"><path d="M-736.377 114.368l45.306 42.158 17.48 43.957-62.352-52.76-61.22 49.766 15.838-40.684z" fill="#fc6600" fill-opacity=".926" filter="url(#A)"/><g fill="#fff"><path d="M-757.77-42.63l-109.628 287.146 55.854-41.925 23.002-64.048 52.698-142.9 52.9 142.9c8.308 21.465 15.97 43.162 23.67 64.85l54.993 41.125L-713.725-42.63z" filter="url(#A)"/><path d="M-446.546 220.482h-28.548l-22.766-174.18-22.766 174.18h-28.548l38.305-252.957h14.093c10.84 0 12.648 6.866 13.732 13.732zm89.046 0h26.018v-96.846s.723-18.8-9.396-23.85c10.48-2.53 9.396-22.405 9.396-22.405V-.675c0-17.707-14.455-31.8-31.8-31.8h-47.34v252.957h26.018V111.7h13.732c6.866 0 13.37 3.975 13.37 16.262zm-27.103-133.345v-95.4h13.732c6.866 0 13.37 3.614 13.37 13v67.937c0 11.564-6.505 14.455-13.37 14.455zm122.325 20.237l34.7 113.108h27.103L-244.2 82.08l40.835-113.83h-27.103l-31.8 91.426v-92.15h-17.346c-2.9.36-8.3 1.807-8.3 9.757v243.2h25.657zM-126.78-35.004c-18.068 0-32.523 14.455-32.523 32.162v194.054c.36 17.346 14.816 31.8 32.523 31.8h19.875c17.346-.723 31.078-14.455 31.44-31.8V-2.843c0-17.346-14.093-31.44-31.44-32.162zm7.227 235.25c-7.6-.36-13.732-6.505-13.732-14.093V1.855c0-7.6 6.143-13.732 13.732-14.093h3.975c7.6 0 13.732 6.143 13.732 14.093v184.297c0 7.95-6.143 14.093-13.732 14.093zM-3.568-32.475v247.537c.36 1.807 1.445 5.42 7.6 5.42h18.43v-242.84c0-4.336-2.9-10.118-10.48-10.118z"/><use xlink:href="#B"/><path d="M313.13 220.482V115.324l31.078-147.8h-19.152c-.723 0-7.227.36-8.312 8.673L300.12 71.96l-16.623-95.762c-1.084-8.31-7.59-8.673-8.31-8.673h-19.152l31.078 147.8v97.57c.36 4.336 3.614 7.59 7.59 7.59z"/><use xlink:href="#B" x="248.98"/><path d="M604.74-32.475H501.4c-4.336 0-7.95 3.614-7.95 7.95v17.707h36.498v221.88c0 1.807 1.084 5.42 7.227 5.42h18.43V-.675c.36-3.252 2.9-6.143 6.505-6.143h20.237c8.3 0 12.287-3.614 13.732-6.866zm54.743 227.3v-87.812c0-3.252 2.9-6.143 6.143-6.143h10.84c8.3 0 11.925-3.614 13.732-6.866 1.084-2.168 5.42-12.648 8.312-19.152h-39.028V-.313c0-3.614 2.53-6.143 6.143-6.143h20.96c8.312 0 12.287-3.975 13.732-7.227L709-32.475h-67.576a7.9 7.9 0 0 0-7.95 7.227v245.73h57.82c8.312 0 12.287-3.614 14.093-6.866 1.084-2.168 5.42-12.286 8.312-18.8zm169.657 25.657h25.657V-32.475h-15.9c-9.396 0-11.202 7.95-11.564 9.034l-28.55 145.64L768.8-23.08s-1.446-9.396-11.564-9.396h-15.9V220.48h25.657V90.03l15.177 66.13c1.446 5.42 4.336 20.598 19.514 20.598h7.95L829.14 90.03zm126.3-198.03c3.252-1.807 7.227-5.782 7.227-14.093v-9.757c0-17.346-14.093-33.246-31.44-33.607h-16.26c-18.068 0-32.523 15.9-32.523 33.607V24.62s-1.084 16.984 11.564 40.112l31.078 58.18s11.202 19.514 11.202 34.33v28.9c0 7.95-6.143 14.093-13.732 14.093a13.73 13.73 0 0 1-13.732-13.732v-44.087l-19.152 8.3c-3.252 1.807-7.227 5.782-7.227 14.093v26.018c.36 17.346 14.093 31.44 31.44 32.162h16.26c18.068 0 32.523-14.455 32.523-32.162V158.7s1.084-16.984-11.564-40.112l-31.078-58.542s-11.202-19.152-11.202-33.97V1.855c0-7.95 6.143-14.093 13.732-14.093s13.732 6.143 13.732 14.093v29.27c6.866-2.9 16.984-7.6 19.152-8.673z"/></g></g></svg>